<?xml version="1.0" standalone="no"?>
<!DOCTYPE svg PUBLIC "-//W3C//DTD SVG 20010904//EN"
 "http://www.w3.org/TR/2001/REC-SVG-20010904/DTD/svg10.dtd">
<svg version="1.0" xmlns="http://www.w3.org/2000/svg"
 width="2000.000000pt" height="2000.000000pt" viewBox="0 0 2000.000000 2000.000000"
 preserveAspectRatio="xMidYMid meet">
<metadata>
Created by potrace 1.14, written by Peter Selinger 2001-2017
</metadata>
<g transform="translate(0.000000,2000.000000) scale(0.100000,-0.100000)"
fill="#000000" stroke="none">
<path d="M10555 18971 c-556 -285 -1312 -554 -1792 -637 -15 -3 -35 -7 -43 -9
-8 -2 -37 -7 -65 -11 -27 -3 -57 -7 -65 -9 -19 -4 -150 -22 -210 -30 -212 -27
-699 -27 -835 0 -11 2 -42 6 -70 9 -27 3 -59 8 -70 10 -11 2 -40 7 -65 10 -25
3 -54 8 -65 10 -45 9 -173 35 -210 42 -53 10 -52 9 -136 29 -41 9 -82 18 -92
20 -10 2 -27 7 -37 10 -10 3 -27 7 -37 9 -69 14 -368 96 -658 181 -51 15 -278
74 -305 80 -8 2 -71 17 -140 34 -108 26 -251 56 -355 76 -46 8 -163 25 -230
33 -76 9 -351 9 -432 0 -371 -42 -759 -179 -1114 -393 -87 -54 -240 -157 -266
-179 -6 -6 -26 -22 -44 -36 -300 -226 -655 -648 -842 -1000 -150 -282 -283
-705 -378 -1195 -16 -82 -29 -153 -29 -157 0 -5 117 -8 260 -8 143 0 260 2
260 4 0 4 22 117 36 184 8 42 42 175 59 232 9 30 18 62 20 70 31 127 152 386
231 495 132 185 336 329 537 380 79 20 110 23 222 20 72 -2 146 -6 165 -9 39
-6 161 -25 200 -32 14 -2 54 -9 90 -14 114 -19 125 -21 140 -25 8 -2 28 -6 44
-9 16 -3 52 -10 80 -15 28 -6 67 -13 86 -15 19 -3 46 -8 60 -11 14 -3 41 -8
60 -11 47 -7 64 -10 225 -39 77 -13 156 -27 175 -30 19 -3 60 -10 90 -15 30
-5 114 -19 185 -30 72 -11 155 -24 185 -30 30 -5 73 -12 95 -14 22 -3 103 -15
180 -25 77 -11 167 -23 200 -26 33 -4 71 -9 85 -12 49 -9 346 -11 400 -2 30 5
75 12 100 15 25 3 47 8 50 9 3 2 23 6 46 9 22 4 107 22 189 42 83 19 159 37
170 39 16 4 130 36 450 129 6 1 30 8 55 15 25 7 78 24 118 37 98 32 172 53
172 51 0 -2 -24 -21 -52 -42 -116 -87 -467 -371 -493 -399 -6 -6 -48 -45 -95
-86 -272 -239 -552 -533 -744 -779 -90 -117 -85 -110 -177 -247 -315 -473
-570 -1107 -665 -1654 -4 -25 -8 -47 -9 -50 -6 -27 -20 -134 -29 -215 -4 -38
-9 -81 -11 -95 -26 -181 -20 -898 10 -1179 l4 -33 -52 6 c-68 7 -167 16 -242
21 -33 2 -107 7 -165 12 -135 9 -604 10 -695 1 -123 -13 -149 -17 -205 -28
-30 -6 -71 -13 -90 -16 -104 -17 -368 -102 -514 -166 -300 -131 -573 -320
-781 -540 -91 -96 -218 -258 -256 -325 -71 -126 -134 -265 -174 -387 -19 -60
-82 -281 -89 -316 -3 -14 -7 -34 -10 -45 -12 -51 -45 -219 -43 -221 1 -1 80
-25 176 -54 96 -28 180 -54 187 -57 7 -2 26 20 45 54 197 348 446 623 649 715
90 41 175 72 229 83 9 2 36 8 61 14 125 28 216 36 420 36 162 0 281 -7 355
-20 17 -3 44 -7 60 -10 17 -3 41 -8 55 -11 14 -3 38 -8 55 -11 71 -12 248 -77
350 -128 317 -156 528 -394 668 -750 65 -166 143 -479 162 -650 3 -27 8 -59
10 -70 5 -24 12 -87 20 -170 3 -33 8 -82 10 -110 3 -27 7 -94 10 -147 4 -88 3
-98 -13 -99 -9 -1 -28 -2 -42 -4 -108 -11 -148 -16 -165 -19 -11 -2 -45 -7
-75 -11 -83 -11 -313 -63 -398 -91 -302 -99 -561 -262 -807 -509 -164 -163
-285 -337 -360 -515 -15 -36 -31 -74 -36 -85 -8 -20 -50 -141 -69 -200 -20
-63 -70 -274 -84 -355 -22 -122 -24 -132 -41 -254 -8 -61 -17 -120 -18 -131
-3 -20 3 -20 222 -23 l226 -2 25 57 c39 93 128 251 194 347 65 96 210 251 289
309 66 49 199 111 282 133 80 20 242 27 330 13 298 -46 501 -253 560 -569 14
-73 14 -344 1 -415 -3 -16 -9 -46 -13 -65 -3 -19 -7 -39 -8 -45 -2 -5 -8 -36
-15 -69 -36 -177 -142 -425 -273 -644 -53 -88 -233 -339 -304 -422 -11 -14
-56 -67 -99 -119 -146 -175 -396 -447 -665 -722 -329 -337 -484 -502 -652
-694 -19 -22 -54 -63 -78 -90 -162 -185 -351 -443 -441 -599 -91 -162 -186
-395 -214 -531 -2 -11 -6 -31 -9 -45 -11 -47 -25 -128 -32 -184 -2 -23 -6 -97
-7 -166 -6 -317 89 -557 304 -769 138 -137 250 -192 395 -197 97 -3 173 18
252 71 260 173 331 513 171 829 -36 72 -72 131 -88 146 -3 3 -11 16 -19 30 -8
14 -31 52 -51 85 -85 139 -129 236 -156 338 -15 58 -20 149 -10 195 31 146 91
276 194 422 75 106 224 262 322 338 204 156 501 312 805 422 50 17 99 36 110
40 19 8 103 35 245 78 98 30 332 88 450 112 58 12 112 23 120 25 14 3 254 41
310 50 14 2 48 6 75 10 28 3 64 8 80 10 39 5 123 13 210 21 263 23 424 29 790
29 369 -1 495 -6 770 -30 17 -1 68 -6 115 -9 47 -4 92 -9 100 -11 8 -2 43 -7
78 -10 35 -4 71 -8 80 -10 9 -1 42 -6 72 -10 76 -9 400 -63 485 -80 39 -8 81
-16 95 -19 14 -2 59 -12 100 -21 41 -9 86 -18 100 -21 49 -10 456 -115 520
-134 403 -120 881 -279 1070 -355 19 -7 72 -27 117 -44 100 -37 410 -159 438
-171 122 -56 360 -148 366 -143 5 6 292 411 447 632 9 13 35 49 58 80 34 46
1390 1957 1502 2116 19 28 79 111 132 186 108 150 124 176 113 182 -5 2 -35
19 -68 37 -33 18 -116 65 -185 103 -69 39 -136 76 -149 83 -23 12 -27 7 -142
-144 -152 -203 -161 -214 -306 -362 -220 -224 -395 -348 -630 -443 -69 -28
-218 -72 -273 -81 -19 -3 -46 -8 -60 -11 -128 -26 -662 -26 -799 0 -9 1 -54 6
-101 10 -47 4 -96 9 -110 10 -14 2 -59 6 -100 9 -41 4 -91 9 -110 11 -19 3
-71 7 -115 10 -44 3 -96 8 -115 10 -36 4 -132 12 -235 20 -33 2 -82 7 -110 9
-27 3 -97 8 -155 11 -58 3 -125 8 -150 10 -25 2 -97 7 -160 10 -63 4 -144 8
-180 10 -390 22 -940 22 -1460 -1 -245 -11 -260 -11 -260 -2 0 4 3 8 8 8 4 0
28 20 54 44 47 44 320 285 438 386 35 30 80 69 100 86 32 29 325 268 415 341
38 30 251 194 311 240 96 72 316 230 414 298 63 44 117 83 118 87 2 4 8 8 13
8 5 0 55 31 111 69 311 207 754 455 1053 588 39 17 92 41 119 53 150 67 491
192 666 246 224 68 560 150 695 169 22 4 47 8 55 10 8 3 33 7 55 10 22 4 51 8
65 10 14 3 50 7 80 10 30 4 62 8 70 10 8 2 47 7 85 11 39 3 84 8 100 10 217
26 815 25 950 -1 11 -2 43 -7 70 -10 45 -5 104 -13 205 -30 435 -73 1013 -261
1509 -492 l73 -34 -6 -57 c-3 -31 -8 -68 -10 -82 -6 -30 -16 -95 -21 -130 -9
-61 -57 -311 -71 -370 -9 -36 -17 -74 -20 -85 -9 -45 -67 -248 -105 -365 -120
-368 -263 -653 -528 -1048 -64 -96 -120 -181 -126 -190 -5 -9 -12 -19 -15 -22
-3 -3 -17 -21 -30 -40 -25 -36 -119 -164 -222 -303 -131 -177 -464 -601 -554
-707 -25 -28 -256 -319 -294 -369 -14 -18 -30 -38 -35 -44 -21 -24 -245 -316
-342 -447 -368 -498 -556 -811 -663 -1105 -18 -49 -36 -99 -40 -110 -13 -32
-49 -175 -61 -240 -14 -79 -19 -313 -8 -395 5 -36 18 -108 30 -160 89 -382
379 -728 724 -861 240 -93 565 -89 823 11 82 31 221 110 269 152 184 158 254
303 247 508 -5 157 -43 259 -130 345 -136 135 -357 166 -684 95 -206 -44 -213
-45 -340 -44 -102 0 -122 4 -172 26 -76 35 -142 98 -175 167 -21 45 -27 70
-27 131 0 93 6 128 41 221 44 120 169 323 264 429 179 200 441 440 824 755 27
22 53 45 59 50 6 6 112 91 236 189 193 153 270 215 350 279 8 7 71 57 140 112
140 112 125 100 275 225 61 50 119 99 130 108 17 15 230 196 319 272 16 14 54
48 85 76 31 28 76 68 101 90 46 40 101 91 249 230 207 193 542 538 646 664 21
25 40 47 44 50 8 6 200 249 221 280 8 12 26 36 38 53 114 154 269 427 347 612
20 47 85 223 91 245 2 8 13 49 24 90 12 41 23 84 25 95 3 11 7 31 10 45 8 38
15 72 20 105 3 17 10 53 15 80 5 28 12 73 15 100 3 28 8 64 10 80 3 17 7 55
10 85 3 30 7 69 9 85 2 17 7 77 11 135 4 58 9 123 10 145 16 213 20 548 20
1635 0 1088 -4 1450 -20 1705 -1 28 -6 101 -9 162 -4 62 -8 125 -10 140 -2 16
-7 69 -11 118 -4 50 -9 97 -10 105 -2 8 -6 44 -9 80 -4 36 -9 76 -11 90 -3 14
-7 45 -10 69 -3 23 -8 57 -10 75 -3 17 -8 45 -11 61 -18 111 -39 215 -64 316
-125 497 -409 991 -860 1493 -48 54 -315 321 -370 371 -257 232 -527 448 -880
702 -122 87 -605 410 -645 431 -17 8 -48 -13 -230 -160 -115 -93 -226 -181
-245 -196 -44 -33 -483 -385 -490 -392 -3 -3 -25 -21 -50 -40 -25 -19 -47 -37
-50 -40 -4 -4 -573 -461 -720 -577 -8 -7 -64 -52 -125 -101 -60 -48 -407 -326
-770 -617 -868 -695 -859 -689 -865 -695 -3 -3 -23 -19 -45 -36 -22 -16 -45
-33 -51 -39 -6 -5 -28 -23 -48 -40 -21 -16 -93 -74 -160 -127 -66 -54 -124
-98 -128 -98 -8 0 -3 2537 5 2645 3 39 8 117 12 175 3 58 8 116 10 130 2 14 7
57 10 95 3 39 8 86 10 105 3 19 7 53 9 75 14 113 47 288 77 405 11 41 21 82
23 90 11 43 63 174 93 235 146 293 372 550 728 830 110 87 344 237 520 335
161 89 733 360 760 360 3 0 25 9 48 19 103 47 509 201 680 258 9 3 17 8 17 12
0 10 -180 404 -188 413 -18 18 -1275 -410 -1667 -567 -33 -13 -118 -47 -190
-76 -358 -142 -568 -236 -880 -394 -315 -160 -586 -324 -760 -463 -5 -4 -28
-21 -50 -37 -77 -57 -281 -234 -365 -317 -378 -373 -614 -750 -756 -1206 -39
-126 -85 -307 -100 -392 -3 -14 -11 -59 -19 -100 -16 -91 -24 -138 -31 -187
-2 -20 -6 -48 -9 -62 -2 -14 -7 -51 -10 -81 -3 -30 -8 -66 -10 -80 -2 -14 -7
-56 -10 -95 -4 -38 -8 -84 -10 -102 -2 -17 -7 -78 -10 -135 -4 -57 -9 -123
-11 -148 -12 -158 -16 -780 -19 -2645 -2 -1160 -6 -2159 -8 -2220 -9 -172 -18
-335 -22 -395 -2 -30 -7 -91 -10 -135 -28 -406 -92 -771 -179 -1020 -72 -207
-214 -469 -381 -704 -69 -97 -241 -317 -279 -357 -6 -6 -40 -45 -76 -85 -78
-89 -323 -334 -406 -406 -32 -28 -70 -61 -84 -73 -50 -45 -268 -218 -365 -291
-145 -110 -196 -145 -435 -303 -233 -154 -258 -170 -460 -289 -74 -43 -150
-88 -169 -100 -44 -26 -40 -20 74 123 271 340 557 748 737 1050 147 246 259
482 329 692 36 109 103 360 115 437 3 18 8 43 10 55 2 11 6 35 9 51 3 17 7 44
10 60 3 17 8 48 10 70 3 22 10 67 15 100 5 33 12 93 15 132 3 40 8 80 9 90 2
10 7 68 11 128 4 61 9 126 11 145 13 133 17 805 19 3165 2 1474 5 2703 8 2730
3 28 8 100 12 160 6 107 8 132 20 245 3 30 8 75 10 100 2 25 7 68 11 95 4 28
8 59 9 70 7 56 20 137 29 180 2 11 7 40 12 65 4 25 8 47 9 50 1 3 5 25 9 50
44 253 166 619 277 837 181 350 532 752 947 1081 252 200 581 414 912 594 126
69 553 278 566 278 2 0 32 13 66 29 35 17 149 65 255 109 l192 78 -15 30 c-58
108 -188 371 -188 378 -2 19 -24 13 -111 -33z m3282 -4677 c86 -47 473 -282
483 -293 3 -3 52 -37 110 -76 170 -113 422 -306 549 -419 128 -114 298 -294
410 -431 64 -80 187 -262 248 -370 116 -202 214 -435 288 -677 56 -186 59
-173 -51 -228 -50 -25 -115 -56 -145 -69 -30 -14 -85 -39 -124 -57 -397 -182
-777 -306 -1120 -363 -104 -18 -158 -25 -345 -46 -112 -13 -309 -20 -560 -20
-280 1 -424 8 -590 30 -19 3 -55 7 -80 10 -43 5 -157 22 -210 31 -14 2 -54 9
-90 15 -371 60 -1012 245 -1432 414 l-66 27 0 228 1 229 71 56 c39 31 85 66
101 79 17 13 109 85 205 161 96 75 189 148 205 160 17 13 118 92 225 176 107
84 220 172 250 196 30 23 60 46 65 51 11 8 604 472 620 485 85 67 386 302 405
316 14 11 75 58 135 106 61 47 124 97 140 110 17 12 79 61 139 109 60 47 110
86 112 86 2 0 25 -12 51 -26z m2136 -4276 c0 -705 -1 -1288 -2 -1294 -1 -7
-83 19 -193 61 -437 163 -792 272 -1088 335 -151 32 -193 40 -295 55 -23 3
-50 7 -61 9 -30 6 -129 18 -264 31 -269 27 -945 27 -1075 0 -11 -2 -47 -7 -80
-10 -33 -3 -76 -8 -95 -10 -85 -13 -177 -27 -200 -31 -14 -2 -41 -7 -60 -10
-122 -20 -393 -83 -590 -139 -198 -55 -606 -196 -725 -250 -16 -8 -53 -23 -82
-33 l-51 -19 0 1273 1 1273 81 -31 c44 -16 110 -41 146 -54 365 -137 932 -287
1280 -340 25 -3 54 -8 65 -10 11 -2 44 -6 73 -10 29 -3 63 -7 75 -10 12 -2 53
-7 90 -10 37 -3 77 -7 88 -9 136 -26 832 -27 1084 -1 17 2 62 7 100 10 39 4
111 13 160 21 50 8 106 16 126 19 20 3 42 8 50 10 8 3 30 7 49 10 205 32 604
154 1000 306 192 74 243 95 355 144 17 7 32 10 35 6 3 -5 4 -586 3 -1292z"/>
</g>
</svg>
